<svg xmlns="http://www.w3.org/2000/svg" version="1.1" xmlns:xlink="http://www.w3.org/1999/xlink" xmlns:svgjs="http://svgjs.dev/svgjs" width="2000" height="1247" viewBox="0 0 2000 1247"><g transform="matrix(1,0,0,1,-1.2121212121212466,0.504858299595071)"><svg viewBox="0 0 396 247" data-background-color="#d2d6dc" preserveAspectRatio="xMidYMid meet" height="1247" width="2000" xmlns="http://www.w3.org/2000/svg" xmlns:xlink="http://www.w3.org/1999/xlink"><g id="tight-bounds" transform="matrix(1,0,0,1,0.2400000000000091,-0.09999999999999432)"><svg viewBox="0 0 395.52 247.2" height="247.2" width="395.52"><g><svg></svg></g><g><svg viewBox="0 0 395.52 247.2" height="247.2" width="395.52"><mask id="b35819df-76a7-488f-b3b7-83c8465ce2b6"><rect width="640" height="400" fill="white"></rect><g transform="matrix(1,0,0,1,39.55199999999999,102.4051116084439)"><svg viewBox="0 0 316.416 42.389776783112175" height="42.389776783112175" width="316.416"><g><svg viewBox="0 0 316.416 42.389776783112175" height="42.389776783112175" width="316.416"><g><svg viewBox="0 0 316.416 42.389776783112175" height="42.389776783112175" width="316.416"><g><svg viewBox="0 0 316.416 42.389776783112175" height="42.389776783112175" width="316.416"><g id="SvgjsG2028"><svg viewBox="0 0 316.416 42.389776783112175" height="42.389776783112175" width="316.416" id="SvgjsSvg2027"><g><svg viewBox="0 0 316.416 42.389776783112175" height="42.389776783112175" width="316.416"><g transform="matrix(1,0,0,1,0,0)"><svg width="316.416" viewBox="-2.90625 -39.95 329.409107142664 45" height="42.389776783112175" data-palette-color="#EFBD48"><path d="M26.15-33.9Q26.15-33.65 26.08-32.6 26-31.55 26-30L26-30Q26-28.6 26.15-26.2L26.15-26.2Q26.15-24.85 24.4-24.85L24.4-24.85 15.6-24.85 15.5-19.7Q15.45-18.85 15.45-15.45L15.45-15.45Q15.45-11.95 15.5-8.65 15.55-5.35 15.55-2.95L15.55-2.95 15.6-0.9 15.6-0.65Q15.6-0.2 15.48-0.1 15.35 0 15.15 0 14.95 0 14.85 0L14.85 0 11.45 0Q10.85 0 10.75-0.2 10.65-0.4 10.65-0.93 10.65-1.45 10.65-1.7L10.65-1.7 10.85-7.9Q11.15-16 11.15-18.3L11.15-18.3Q11.15-19.6 11.05-22.2L11.05-22.2 11-24.85Q7.4-24.85 3.7-24.75L3.7-24.75 2.15-24.7Q1.5-24.7 1.25-25.05 1-25.4 1.15-25.85L1.15-25.85 1.2-27.1Q1.3-30 1.3-32.45L1.3-32.45Q1.3-33.65 1.25-33.9L1.25-33.9 1.25-34.25Q1.25-34.8 1.48-34.9 1.7-35 2.15-35L2.15-35 7.1-35 9.9-35.05Q12.5-35.15 13.55-35.15L13.55-35.15 16.55-35.1Q20.15-35 22.2-35L22.2-35Q23.7-35 24.15-35.05L24.15-35.05Q25.25-35.1 25.7-34.73 26.15-34.35 26.15-33.9L26.15-33.9ZM39.7-21.5L41.85-21.45Q42.9-21.45 43.8-21.55L43.8-21.55Q44.1-21.6 44.75-21.6L44.75-21.6Q45.45-21.6 45.8-21.55L45.8-21.55 46.95-21.45 47.1-22.95 47.25-25.35 47.35-30.25 47.45-34.1Q47.5-34.85 47.65-35.1 47.8-35.35 48.35-35.4L48.35-35.4Q48.85-35.4 51.15-35.7L51.15-35.7Q51.55-35.75 52.6-35.75L52.6-35.75Q54.2-35.75 55.25-35.6L55.25-35.6Q55.8-35.5 55.92-35.38 56.05-35.25 56.07-34.95 56.1-34.65 56.15-34.4L56.15-34.4Q56.15-33.6 56-31.7L56-31.7Q55.8-28.2 55.8-26.9L55.8-26.9Q55.8-26.25 55.5-22.75L55.5-22.75Q55.2-18.95 55.2-17.8L55.2-17.8 55.3-7.9Q55.3-2.3 55.5-1.05L55.5-1.05 55.5-0.95Q55.5-0.4 55.3-0.28 55.1-0.15 54.85-0.18 54.6-0.2 54.5-0.2L54.5-0.2Q54.1-0.3 53.5-0.3L53.5-0.3Q53.3-0.3 52.2-0.2L52.2-0.2Q50.8-0.05 47.7-0.05L47.7-0.05 47.6-0.05Q46.9-0.05 46.9-0.5L46.9-0.5Q46.9-1.45 46.87-4.25 46.85-7.05 46.7-8.35L46.7-8.35Q46.6-10.25 46.6-12.05L46.6-12.05Q46.55-12.8 46.55-14.35L46.55-14.35 45.1-14.35 42.95-14.3 42.05-14.25 41.05-14.3Q40.3-14.3 39.85-14.35L39.85-14.35 39.7-11.2Q39.55-9.45 39.55-6.65L39.55-6.65 39.55-4.1Q39.55-1.4 39.65-0.85L39.65-0.85Q39.75-0.25 39.47-0.13 39.2 0 38.82 0 38.45 0 38.3 0L38.3 0Q37.9-0.05 36.95-0.13 36-0.2 35.4-0.2L35.4-0.2 33.95-0.1Q33.6-0.05 31.35 0.1L31.35 0.1Q30.2 0.25 30.2-1.3L30.2-1.3 30.25-3.25 30.35-6.85Q30.35-7.95 30.4-8.9L30.4-8.9 30.45-14.7Q30.45-16.7 30.4-17.25L30.4-17.25Q30.25-18.4 30.25-20.25L30.25-20.25 30.3-23.3Q30.35-24.05 30.35-25.25L30.35-25.25Q30.35-26.65 30.65-31.05L30.65-31.05 30.8-34.5Q30.8-34.9 30.95-35.05 31.1-35.2 31.4-35.2L31.4-35.2 32.05-35.15Q32.7-35.05 33.75-35 34.8-34.95 35.8-34.95L35.8-34.95 38.1-35Q38.65-35.05 39.35-35.05L39.35-35.05 39.4-35.05Q39.8-35.05 39.8-34.5L39.8-34.5Q39.85-34.4 39.87-32.52 39.9-30.65 39.9-28.1L39.9-28.1Q39.9-26.5 39.8-23.8L39.8-23.8 39.7-21.5ZM84.75-2.05Q86.09-0.7 86.09-0.2L86.09-0.2Q86.09-0.1 85.84 0.15L85.84 0.15Q85.4 0.45 83.59 0.45L83.59 0.45Q82.3 0.45 81.95 0.28 81.59 0.1 81.42-0.3 81.25-0.7 81.15-0.9L81.15-0.9Q81-1.2 79.92-2.63 78.84-4.05 78.3-4.8L78.3-4.8Q75.65-8.2 73.7-10.95L73.7-10.95Q72.5-12.65 69.25-16.8L69.25-16.8 68.45-17.8 65-22.1 64.8-20.1Q64.59-18.6 64.7-16.5L64.7-16.5Q64.84-15.1 64.9-9.25 64.95-3.4 64.95-0.7L64.95-0.7Q64.95 0.1 64.34 0.33 63.75 0.55 62.95 0.55L62.95 0.55Q62.6 0.55 62.5 0.25 62.4-0.05 62.37-0.4 62.35-0.75 62.35-0.85L62.35-0.85Q62.25-1.65 62.25-3.2L62.25-3.2Q62.25-4.2 62.3-4.7L62.3-4.7Q62.35-7.4 62.45-14.13 62.55-20.85 62.55-26.2L62.55-26.2Q62.55-31.95 62.4-32.9L62.4-32.9Q62.35-33.3 62.35-33.95L62.35-33.95Q62.35-34.7 62.57-34.9 62.8-35.1 63.25-35.1L63.25-35.1Q64.25-35.1 65.2-35.05L65.2-35.05 70.65-34.95Q73.65-34.95 76.9-33.9 80.15-32.85 80.15-30L80.15-30Q80.15-27.3 78.15-25.8 76.15-24.3 73.67-23.75 71.2-23.2 69.34-23.2L69.34-23.2Q68.7-23.2 68.65-23.25L68.65-23.25Q68.95-22.95 72.59-17.95L72.59-17.95Q83.59-3.2 84.75-2.05L84.75-2.05ZM64.84-25.25Q66.5-25.25 67.34-25.3L67.34-25.3Q70.25-25.4 71.84-25.7L71.84-25.7Q74.15-26.1 75.32-26.8 76.5-27.5 76.5-29L76.5-29Q76.5-30 75.45-30.73 74.4-31.45 72.92-31.83 71.45-32.2 70.34-32.2L70.34-32.2Q69.09-32.25 66.84-32.25L66.84-32.25 65.15-32.25 64.84-25.25ZM111.14-33.25L111.14-32.7Q111.14-31.55 110.94-31.55L110.94-31.55Q110.64-31.55 110.27-31.63 109.89-31.7 109.34-31.7L109.34-31.7 101.34-31.7 95.14-31.75Q94.84-31.75 92.89-31.6L92.89-31.6 91.74-31.5 91.64-30.15Q91.59-29.4 91.59-27.8L91.59-27.8Q91.59-27 91.69-25.7L91.69-25.7Q91.79-24.5 91.79-23.95L91.79-23.95 91.79-21.95Q91.79-21.15 91.84-20.7L91.84-20.7Q92.29-20.65 93.19-20.65L93.19-20.65 95.19-20.65Q95.49-20.65 96.39-20.75L96.39-20.75Q97.69-20.85 98.64-20.85L98.64-20.85Q99.04-20.85 101.44-20.7L101.44-20.7 102.54-20.65Q102.94-20.65 103.69-20.73 104.44-20.8 105.14-20.8L105.14-20.8 106.79-20.75Q108.09-20.65 108.59-20.65L108.59-20.65Q109.14-20.65 109.34-20.7L109.34-20.7 109.64-20.75Q109.99-20.75 110.14-20.53 110.29-20.3 110.24-20.1L110.24-20.1Q110.19-19.75 110.19-19.23 110.19-18.7 110.14-18.3L110.14-18.3Q110.09-17.9 109.99-17.82 109.89-17.75 109.39-17.75L109.39-17.75 107.39-17.95Q103.64-18.3 102.49-18.3L102.49-18.3Q98.24-18.3 96.24-18.15L96.24-18.15Q95.44-18.05 94.49-18.05 93.54-18.05 93.29-18.05L93.29-18.05Q92.34-18.05 91.89-18.1L91.89-18.1 91.74-17.3Q91.64-16.4 91.64-15.7L91.64-15.7Q91.64-15.1 91.74-14.3L91.74-14.3Q91.84-13.5 91.84-12.9L91.84-12.9 91.89-6.95 91.84-4.45Q91.79-4 91.79-3.2L91.79-3.2Q92.44-3.15 93.69-3.15L93.69-3.15Q94.74-3.1 96.94-3.1L96.94-3.1 99.64-3.05Q100.49-3 102.24-3L102.24-3Q103.29-3 104.99-3.1L104.99-3.1 107.09-3.15Q108.29-3.15 109.09-3.1 109.89-3.05 110.29-3.05L110.29-3.05Q110.69-3.05 110.77-2.9 110.84-2.75 110.84-2.25L110.84-2.25Q110.84-1.9 110.79-1.53 110.74-1.15 110.74-0.7L110.74-0.7Q110.74-0.35 110.49-0.23 110.24-0.1 109.69-0.1L109.69-0.1Q109.14-0.1 108.79-0.15L108.79-0.15Q107.44-0.3 103.34-0.3L103.34-0.3Q100.84-0.3 99.74-0.25L99.74-0.25Q98.89-0.2 96.94-0.2L96.94-0.2 92.29-0.25Q91.49-0.3 90.39-0.3L90.39-0.3Q89.69-0.3 89.47-0.48 89.24-0.65 89.24-1.05L89.24-1.05 89.29-1.85Q89.34-2.05 89.34-2.3L89.34-2.3Q89.34-2.45 89.29-3.03 89.24-3.6 89.24-5.15L89.24-5.15Q89.24-6.65 89.14-10.05L89.14-10.05Q88.99-12.85 88.99-15.45L88.99-15.45Q88.99-16.55 89.24-21.8L89.24-21.8Q89.29-22.85 89.34-23.9 89.39-24.95 89.39-25.8L89.39-25.8Q89.39-31.6 89.24-33.45L89.24-33.45Q89.09-34.65 90.69-34.65L90.69-34.65Q91.09-34.65 91.99-34.55L91.99-34.55Q92.79-34.45 93.19-34.45L93.19-34.45 96.34-34.55Q99.74-34.75 101.59-34.75L101.59-34.75Q103.74-34.75 107.64-34.65L107.64-34.65Q108.89-34.6 110.29-34.6L110.29-34.6Q110.89-34.6 111.04-34.3 111.19-34 111.17-33.68 111.14-33.35 111.14-33.25L111.14-33.25ZM136.69-33.25L136.69-32.7Q136.69-31.55 136.49-31.55L136.49-31.55Q136.19-31.55 135.81-31.63 135.44-31.7 134.89-31.7L134.89-31.7 126.89-31.7 120.69-31.75Q120.39-31.75 118.44-31.6L118.44-31.6 117.29-31.5 117.19-30.15Q117.14-29.4 117.14-27.8L117.14-27.8Q117.14-27 117.24-25.7L117.24-25.7Q117.34-24.5 117.34-23.95L117.34-23.95 117.34-21.95Q117.34-21.15 117.39-20.7L117.39-20.7Q117.84-20.65 118.74-20.65L118.74-20.65 120.74-20.65Q121.04-20.65 121.94-20.75L121.94-20.75Q123.24-20.85 124.19-20.85L124.19-20.85Q124.59-20.85 126.99-20.7L126.99-20.7 128.09-20.65Q128.49-20.65 129.24-20.73 129.99-20.8 130.69-20.8L130.69-20.8 132.34-20.75Q133.64-20.65 134.14-20.65L134.14-20.65Q134.69-20.65 134.89-20.7L134.89-20.7 135.19-20.75Q135.54-20.75 135.69-20.53 135.84-20.3 135.79-20.1L135.79-20.1Q135.74-19.75 135.74-19.23 135.74-18.7 135.69-18.3L135.69-18.3Q135.64-17.9 135.54-17.82 135.44-17.75 134.94-17.75L134.94-17.75 132.94-17.95Q129.19-18.3 128.04-18.3L128.04-18.3Q123.79-18.3 121.79-18.15L121.79-18.15Q120.99-18.05 120.04-18.05 119.09-18.05 118.84-18.05L118.84-18.05Q117.89-18.05 117.44-18.1L117.44-18.1 117.29-17.3Q117.19-16.4 117.19-15.7L117.19-15.7Q117.19-15.1 117.29-14.3L117.29-14.3Q117.39-13.5 117.39-12.9L117.39-12.9 117.44-6.95 117.39-4.45Q117.34-4 117.34-3.2L117.34-3.2Q117.99-3.15 119.24-3.15L119.24-3.15Q120.29-3.1 122.49-3.1L122.49-3.1 125.19-3.05Q126.04-3 127.79-3L127.79-3Q128.84-3 130.54-3.1L130.54-3.1 132.64-3.15Q133.84-3.15 134.64-3.1 135.44-3.05 135.84-3.05L135.84-3.05Q136.24-3.05 136.31-2.9 136.39-2.75 136.39-2.25L136.39-2.25Q136.39-1.9 136.34-1.53 136.29-1.15 136.29-0.7L136.29-0.7Q136.29-0.35 136.04-0.23 135.79-0.1 135.24-0.1L135.24-0.1Q134.69-0.1 134.34-0.15L134.34-0.15Q132.99-0.3 128.89-0.3L128.89-0.3Q126.39-0.3 125.29-0.25L125.29-0.25Q124.44-0.2 122.49-0.2L122.49-0.2 117.84-0.25Q117.04-0.3 115.94-0.3L115.94-0.3Q115.24-0.3 115.02-0.48 114.79-0.65 114.79-1.05L114.79-1.05 114.84-1.85Q114.89-2.05 114.89-2.3L114.89-2.3Q114.89-2.45 114.84-3.03 114.79-3.6 114.79-5.15L114.79-5.15Q114.79-6.65 114.69-10.05L114.69-10.05Q114.54-12.85 114.54-15.45L114.54-15.45Q114.54-16.55 114.79-21.8L114.79-21.8Q114.84-22.85 114.89-23.9 114.94-24.95 114.94-25.8L114.94-25.8Q114.94-31.6 114.79-33.45L114.79-33.45Q114.64-34.65 116.24-34.65L116.24-34.65Q116.64-34.65 117.54-34.55L117.54-34.55Q118.34-34.45 118.74-34.45L118.74-34.45 121.89-34.55Q125.29-34.75 127.14-34.75L127.14-34.75Q129.29-34.75 133.19-34.65L133.19-34.65Q134.44-34.6 135.84-34.6L135.84-34.6Q136.44-34.6 136.59-34.3 136.74-34 136.72-33.68 136.69-33.35 136.69-33.25L136.69-33.25ZM150.09-35Q153.14-35 156.59-33.38 160.04-31.75 162.64-27.45 165.24-23.15 165.24-15.75L165.24-15.75Q165.24-9 162.01-5.53 158.79-2.05 155.24-1.07 151.69-0.1 149.34-0.1L149.34-0.1 145.24-0.05Q144.14 0 142.54 0L142.54 0Q141.59 0 141.59-1.7L141.59-1.7 141.64-3 141.54-5.5 141.49-7.75 141.44-9.25Q141.24-11.85 141.24-15.15L141.24-15.15Q141.24-17.1 141.44-20.3L141.44-20.3Q141.64-23.5 141.64-25.55L141.64-25.55 141.59-32.25Q141.54-33.05 141.54-34.05L141.54-34.05Q141.54-34.6 142.26-34.73 142.99-34.85 143.79-34.83 144.59-34.8 144.89-34.8L144.89-34.8 146.69-34.9Q148.79-35 150.09-35L150.09-35ZM150.19-10.7Q151.54-11.35 152.69-12.5L152.69-12.5Q155.19-14.9 155.19-18.2L155.19-18.2Q155.19-21.35 152.79-23.25L152.79-23.25Q151.74-24.05 150.44-24.45L150.44-24.45Q150.54-23.35 150.54-22.75L150.54-22.75Q150.54-21.8 150.44-20L150.44-20Q150.34-18.3 150.34-17.5L150.34-17.5Q150.34-16.2 150.24-13.3L150.24-13.3Q150.19-12.45 150.19-10.7L150.19-10.7ZM193.14-33.9Q193.14-33.65 193.06-32.6 192.99-31.55 192.99-30L192.99-30Q192.99-28.6 193.14-26.2L193.14-26.2Q193.14-24.85 191.39-24.85L191.39-24.85 182.59-24.85 182.49-19.7Q182.44-18.85 182.44-15.45L182.44-15.45Q182.44-11.95 182.49-8.65 182.54-5.35 182.54-2.95L182.54-2.95 182.59-0.9 182.59-0.65Q182.59-0.2 182.46-0.1 182.34 0 182.14 0 181.94 0 181.84 0L181.84 0 178.44 0Q177.84 0 177.74-0.2 177.64-0.4 177.64-0.93 177.64-1.45 177.64-1.7L177.64-1.7 177.84-7.9Q178.14-16 178.14-18.3L178.14-18.3Q178.14-19.6 178.04-22.2L178.04-22.2 177.99-24.85Q174.39-24.85 170.69-24.75L170.69-24.75 169.14-24.7Q168.49-24.7 168.24-25.05 167.99-25.4 168.14-25.85L168.14-25.85 168.19-27.1Q168.29-30 168.29-32.45L168.29-32.45Q168.29-33.65 168.24-33.9L168.24-33.9 168.24-34.25Q168.24-34.8 168.46-34.9 168.69-35 169.14-35L169.14-35 174.09-35 176.89-35.05Q179.49-35.15 180.54-35.15L180.54-35.15 183.54-35.1Q187.14-35 189.19-35L189.19-35Q190.69-35 191.14-35.05L191.14-35.05Q192.24-35.1 192.69-34.73 193.14-34.35 193.14-33.9L193.14-33.9ZM207.48-35.85Q212.23-35.85 215.31-33.98 218.38-32.1 220.08-30.4L220.08-30.4Q220.28-30.2 220.28-29.95L220.28-29.95Q220.28-29.8 220.16-29.58 220.03-29.35 219.98-29.25L219.98-29.25Q219.73-28.9 219.16-28.03 218.58-27.15 218.23-26.75L218.23-26.75Q218.08-26.55 217.91-26.33 217.73-26.1 217.61-26 217.48-25.9 217.23-25.9L217.23-25.9Q217.13-25.9 216.76-26.23 216.38-26.55 216.03-26.8L216.03-26.8Q214.03-28.55 212.13-29.8 210.23-31.05 208.48-31.05L208.48-31.05Q207.08-31.05 206.18-30.43 205.28-29.8 205.28-27.6L205.28-27.6Q205.28-25.45 206.88-24.25 208.48-23.05 211.13-21.95L211.13-21.95Q211.38-21.85 214.06-20.7 216.73-19.55 218.81-16.3 220.88-13.05 220.88-8.55L220.88-8.55Q220.88-3.75 217.28-1.35 213.68 1.05 207.33 1.05L207.33 1.05Q200.13 1.05 198.18-1.73 196.23-4.5 196.13-4.6L196.13-4.6Q195.93-4.85 195.93-5.1L195.93-5.1Q195.93-5.25 196.33-5.75L196.33-5.75Q196.98-6.65 198.23-7.9L198.23-7.9Q198.43-8.1 198.63-8.1L198.63-8.1Q198.88-8.1 199.18-7.73 199.48-7.35 199.68-7.15L199.68-7.15Q202.63-4.2 206.38-4.2L206.38-4.2Q208.28-4.2 209.68-4.93 211.08-5.65 211.08-7.65L211.08-7.65Q211.08-11.1 205.63-15L205.63-15Q204.73-15.6 203.93-16L203.93-16Q201.83-17.15 200.33-18.25 198.83-19.35 197.68-21.15 196.53-22.95 196.53-25.35L196.53-25.35Q196.53-28.35 198.41-30.75 200.28-33.15 202.91-34.5 205.53-35.85 207.48-35.85L207.48-35.85ZM235.48-21.5L237.63-21.45Q238.68-21.45 239.58-21.55L239.58-21.55Q239.88-21.6 240.53-21.6L240.53-21.6Q241.23-21.6 241.58-21.55L241.58-21.55 242.73-21.45 242.88-22.95 243.03-25.35 243.13-30.25 243.23-34.1Q243.28-34.85 243.43-35.1 243.58-35.35 244.13-35.4L244.13-35.4Q244.63-35.4 246.93-35.7L246.93-35.7Q247.33-35.75 248.38-35.75L248.38-35.75Q249.98-35.75 251.03-35.6L251.03-35.6Q251.58-35.5 251.71-35.38 251.83-35.25 251.86-34.95 251.88-34.65 251.93-34.4L251.93-34.4Q251.93-33.6 251.78-31.7L251.78-31.7Q251.58-28.2 251.58-26.9L251.58-26.9Q251.58-26.25 251.28-22.75L251.28-22.75Q250.98-18.95 250.98-17.8L250.98-17.8 251.08-7.9Q251.08-2.3 251.28-1.05L251.28-1.05 251.28-0.95Q251.28-0.4 251.08-0.28 250.88-0.15 250.63-0.18 250.38-0.2 250.28-0.2L250.28-0.2Q249.88-0.3 249.28-0.3L249.28-0.3Q249.08-0.3 247.98-0.2L247.98-0.2Q246.58-0.05 243.48-0.05L243.48-0.05 243.38-0.05Q242.68-0.05 242.68-0.5L242.68-0.5Q242.68-1.45 242.66-4.25 242.63-7.05 242.48-8.35L242.48-8.35Q242.38-10.25 242.38-12.05L242.38-12.05Q242.33-12.8 242.33-14.35L242.33-14.35 240.88-14.35 238.73-14.3 237.83-14.25 236.83-14.3Q236.08-14.3 235.63-14.35L235.63-14.35 235.48-11.2Q235.33-9.45 235.33-6.65L235.33-6.65 235.33-4.1Q235.33-1.4 235.43-0.85L235.43-0.85Q235.53-0.25 235.26-0.13 234.98 0 234.61 0 234.23 0 234.08 0L234.08 0Q233.68-0.05 232.73-0.13 231.78-0.2 231.18-0.2L231.18-0.2 229.73-0.1Q229.38-0.05 227.13 0.1L227.13 0.1Q225.98 0.25 225.98-1.3L225.98-1.3 226.03-3.25 226.13-6.85Q226.13-7.95 226.18-8.9L226.18-8.9 226.23-14.7Q226.23-16.7 226.18-17.25L226.18-17.25Q226.03-18.4 226.03-20.25L226.03-20.25 226.08-23.3Q226.13-24.05 226.13-25.25L226.13-25.25Q226.13-26.65 226.43-31.05L226.43-31.05 226.58-34.5Q226.58-34.9 226.73-35.05 226.88-35.2 227.18-35.2L227.18-35.2 227.83-35.15Q228.48-35.05 229.53-35 230.58-34.95 231.58-34.95L231.58-34.95 233.88-35Q234.43-35.05 235.13-35.05L235.13-35.05 235.18-35.05Q235.58-35.05 235.58-34.5L235.58-34.5Q235.63-34.4 235.66-32.52 235.68-30.65 235.68-28.1L235.68-28.1Q235.68-26.5 235.58-23.8L235.58-23.8 235.48-21.5ZM259.43-35.25Q260.08-35.2 260.7-35.23 261.33-35.25 261.78-35.25L261.78-35.25Q262.88-35.25 263.38-35.2L263.38-35.2Q263.98-35.15 264.23-34.95 264.48-34.75 264.48-34.4L264.48-34.4Q264.48-34.15 264.43-33.85 264.38-33.55 264.33-33.3L264.33-33.3Q263.78-29.05 263.73-24.55L263.73-24.55Q263.68-23.25 263.68-20.55L263.68-20.55 263.73-14.5Q263.78-13.75 263.78-12.95L263.78-12.95 263.83-10.95Q263.93-8.35 263.93-7.1L263.93-7.1Q263.93-6.15 263.88-5.95L263.88-5.95Q263.83-5.75 263.83-4.8L263.83-4.8 263.88-2.05Q263.93-1.45 263.93-0.55L263.93-0.55Q263.98 0.1 263.55 0.28 263.13 0.45 262.43 0.4L262.43 0.4 257.88 0.4Q257.13 0.45 256.93 0.08 256.73-0.3 256.68-1.15L256.68-1.15Q256.58-1.5 256.78-3L256.78-3Q256.98-4.4 256.98-5.4L256.98-5.4Q256.98-5.75 257.33-12.15L257.33-12.15Q257.63-16.85 257.63-17.3L257.63-17.3 257.73-22.2 257.83-26.75 257.93-29.45 258.03-31.25 258.03-33.35Q258.03-35.3 259.03-35.3L259.03-35.3Q259.28-35.3 259.43-35.25L259.43-35.25ZM292.68-2.05Q294.03-0.7 294.03-0.2L294.03-0.2Q294.03-0.1 293.78 0.15L293.78 0.15Q293.32 0.45 291.53 0.45L291.53 0.45Q290.23 0.45 289.88 0.28 289.53 0.1 289.35-0.3 289.18-0.7 289.07-0.9L289.07-0.9Q288.93-1.2 287.85-2.63 286.78-4.05 286.23-4.8L286.23-4.8Q283.57-8.2 281.63-10.95L281.63-10.95Q280.43-12.65 277.18-16.8L277.18-16.8 276.38-17.8 272.93-22.1 272.73-20.1Q272.53-18.6 272.63-16.5L272.63-16.5Q272.78-15.1 272.82-9.25 272.88-3.4 272.88-0.7L272.88-0.7Q272.88 0.1 272.28 0.33 271.68 0.55 270.88 0.55L270.88 0.55Q270.53 0.55 270.43 0.25 270.32-0.05 270.3-0.4 270.28-0.75 270.28-0.85L270.28-0.85Q270.18-1.65 270.18-3.2L270.18-3.2Q270.18-4.2 270.23-4.7L270.23-4.7Q270.28-7.4 270.38-14.13 270.48-20.85 270.48-26.2L270.48-26.2Q270.48-31.95 270.32-32.9L270.32-32.9Q270.28-33.3 270.28-33.95L270.28-33.95Q270.28-34.7 270.5-34.9 270.73-35.1 271.18-35.1L271.18-35.1Q272.18-35.1 273.13-35.05L273.13-35.05 278.57-34.95Q281.57-34.95 284.82-33.9 288.07-32.85 288.07-30L288.07-30Q288.07-27.3 286.07-25.8 284.07-24.3 281.6-23.75 279.13-23.2 277.28-23.2L277.28-23.2Q276.63-23.2 276.57-23.25L276.57-23.25Q276.88-22.95 280.53-17.95L280.53-17.95Q291.53-3.2 292.68-2.05L292.68-2.05ZM272.78-25.25Q274.43-25.25 275.28-25.3L275.28-25.3Q278.18-25.4 279.78-25.7L279.78-25.7Q282.07-26.1 283.25-26.8 284.43-27.5 284.43-29L284.43-29Q284.43-30 283.38-30.73 282.32-31.45 280.85-31.83 279.38-32.2 278.28-32.2L278.28-32.2Q277.03-32.25 274.78-32.25L274.78-32.25 273.07-32.25 272.78-25.25ZM321.67-35.95Q322.27-35.9 322.4-35.65 322.52-35.4 322.5-34.98 322.47-34.55 322.47-34.35L322.47-34.35Q322.52-33.7 322.22-33.45 321.92-33.2 321.27-33.2L321.27-33.2Q320.87-33.2 319.75-33.15 318.62-33.1 317.02-33.15L317.02-33.15 316.82-33.15 316.72-24.1 316.67-15.3Q316.67-13.3 316.9-10.23 317.12-7.15 317.17-6.35L317.17-6.35Q317.47-2.35 317.47-1.85L317.47-1.85Q317.52-0.85 317.02-0.55 316.52-0.25 315.27-0.25L315.27-0.25 313.07-0.3Q312.82-0.3 304.87-0.45L304.87-0.45 301.77-0.5Q301.27-0.5 301.27-1.5L301.27-1.5Q301.27-1.85 301.37-2.85L301.37-2.85Q301.47-4.15 301.47-4.85L301.47-4.85Q301.37-6.15 301.37-9.4L301.37-9.4Q301.37-13.75 301.5-18.7 301.62-23.65 301.82-26.15L301.82-26.15Q301.92-27.45 301.92-29.65L301.92-29.65Q301.92-32.1 301.77-33.35L301.77-33.35 300.87-33.4 296.72-33.3Q296.32-33.3 296.32-34.1L296.32-34.1 296.37-35.2Q296.37-35.6 296.5-35.73 296.62-35.85 296.92-35.85L296.92-35.85Q297.12-35.85 297.42-35.8 297.72-35.75 298.12-35.75L298.12-35.75 308.77-35.8 317.47-35.9Q319.52-35.95 321.67-35.95L321.67-35.95Z" opacity="1" transform="matrix(1,0,0,1,0,0)" fill="black" class="wordmark-text-0" id="SvgjsPath2026" stroke-width="7" stroke="black" stroke-linejoin="round"></path></svg></g></svg></g></svg></g></svg></g></svg></g></svg></g></svg></g></mask><g transform="matrix(1,0,0,1,39.55199999999999,102.4051116084439)"><svg viewBox="0 0 316.416 42.389776783112175" height="42.389776783112175" width="316.416"><g><svg viewBox="0 0 316.416 42.389776783112175" height="42.389776783112175" width="316.416"><g><svg viewBox="0 0 316.416 42.389776783112175" height="42.389776783112175" width="316.416"><g><svg viewBox="0 0 316.416 42.389776783112175" height="42.389776783112175" width="316.416"><g id="textblocktransform"><svg viewBox="0 0 316.416 42.389776783112175" height="42.389776783112175" width="316.416" id="textblock"><g><svg viewBox="0 0 316.416 42.389776783112175" height="42.389776783112175" width="316.416"><g transform="matrix(1,0,0,1,0,0)"><svg width="316.416" viewBox="-2.90625 -39.95 329.409107142664 45" height="42.389776783112175" data-palette-color="#EFBD48"><path d="M26.15-33.9Q26.15-33.65 26.08-32.6 26-31.55 26-30L26-30Q26-28.6 26.15-26.2L26.15-26.2Q26.15-24.85 24.4-24.85L24.4-24.85 15.6-24.85 15.5-19.7Q15.45-18.85 15.45-15.45L15.45-15.45Q15.45-11.95 15.5-8.65 15.55-5.35 15.55-2.95L15.55-2.95 15.6-0.9 15.6-0.65Q15.6-0.2 15.48-0.1 15.35 0 15.15 0 14.95 0 14.85 0L14.85 0 11.45 0Q10.85 0 10.75-0.2 10.65-0.4 10.65-0.93 10.65-1.45 10.65-1.7L10.65-1.7 10.85-7.9Q11.15-16 11.15-18.3L11.15-18.3Q11.15-19.6 11.05-22.2L11.05-22.2 11-24.85Q7.4-24.85 3.7-24.75L3.7-24.75 2.15-24.7Q1.5-24.7 1.25-25.05 1-25.4 1.15-25.85L1.15-25.85 1.2-27.1Q1.3-30 1.3-32.45L1.3-32.45Q1.3-33.65 1.25-33.9L1.25-33.9 1.25-34.25Q1.25-34.8 1.48-34.9 1.7-35 2.15-35L2.15-35 7.1-35 9.9-35.05Q12.5-35.15 13.55-35.15L13.55-35.15 16.55-35.1Q20.15-35 22.2-35L22.2-35Q23.7-35 24.15-35.05L24.15-35.05Q25.25-35.1 25.7-34.73 26.15-34.35 26.15-33.9L26.15-33.9ZM39.7-21.5L41.85-21.45Q42.9-21.45 43.8-21.55L43.8-21.55Q44.1-21.6 44.75-21.6L44.75-21.6Q45.45-21.6 45.8-21.55L45.8-21.55 46.95-21.45 47.1-22.95 47.25-25.35 47.35-30.25 47.45-34.1Q47.5-34.85 47.65-35.1 47.8-35.35 48.35-35.4L48.35-35.4Q48.85-35.4 51.15-35.7L51.15-35.7Q51.55-35.75 52.6-35.75L52.6-35.75Q54.2-35.75 55.25-35.6L55.25-35.6Q55.8-35.5 55.92-35.38 56.05-35.25 56.07-34.95 56.1-34.65 56.15-34.4L56.15-34.4Q56.15-33.6 56-31.7L56-31.7Q55.8-28.2 55.8-26.9L55.8-26.9Q55.8-26.25 55.5-22.75L55.5-22.75Q55.2-18.95 55.2-17.8L55.2-17.8 55.3-7.9Q55.3-2.3 55.5-1.05L55.5-1.05 55.5-0.95Q55.5-0.4 55.3-0.28 55.1-0.15 54.85-0.18 54.6-0.2 54.5-0.2L54.5-0.2Q54.1-0.3 53.5-0.3L53.5-0.3Q53.3-0.3 52.2-0.2L52.2-0.2Q50.8-0.05 47.7-0.05L47.7-0.05 47.6-0.05Q46.9-0.05 46.9-0.5L46.9-0.5Q46.9-1.45 46.87-4.25 46.85-7.05 46.7-8.35L46.7-8.35Q46.6-10.25 46.6-12.05L46.6-12.05Q46.55-12.8 46.55-14.35L46.55-14.35 45.1-14.35 42.95-14.3 42.05-14.25 41.05-14.3Q40.3-14.3 39.85-14.35L39.85-14.35 39.7-11.2Q39.55-9.45 39.55-6.65L39.55-6.65 39.55-4.1Q39.55-1.4 39.65-0.85L39.65-0.85Q39.75-0.25 39.47-0.13 39.2 0 38.82 0 38.45 0 38.3 0L38.3 0Q37.9-0.05 36.95-0.13 36-0.2 35.4-0.2L35.4-0.2 33.95-0.1Q33.6-0.05 31.35 0.1L31.35 0.1Q30.2 0.25 30.2-1.3L30.2-1.3 30.25-3.25 30.35-6.85Q30.35-7.95 30.4-8.9L30.4-8.9 30.45-14.7Q30.45-16.7 30.4-17.25L30.4-17.25Q30.25-18.4 30.25-20.25L30.25-20.25 30.3-23.3Q30.35-24.05 30.35-25.25L30.35-25.25Q30.35-26.65 30.65-31.05L30.65-31.05 30.8-34.5Q30.8-34.9 30.95-35.05 31.1-35.2 31.4-35.2L31.4-35.2 32.05-35.15Q32.7-35.05 33.75-35 34.8-34.95 35.8-34.95L35.8-34.95 38.1-35Q38.65-35.05 39.35-35.05L39.35-35.05 39.4-35.05Q39.8-35.05 39.8-34.5L39.8-34.5Q39.85-34.4 39.87-32.52 39.9-30.65 39.9-28.1L39.9-28.1Q39.9-26.5 39.8-23.8L39.8-23.8 39.7-21.5ZM84.75-2.05Q86.09-0.7 86.09-0.2L86.09-0.2Q86.09-0.1 85.84 0.15L85.84 0.15Q85.4 0.45 83.59 0.45L83.59 0.45Q82.3 0.45 81.95 0.28 81.59 0.1 81.42-0.3 81.25-0.7 81.15-0.9L81.15-0.9Q81-1.2 79.92-2.63 78.84-4.05 78.3-4.8L78.3-4.8Q75.65-8.2 73.7-10.95L73.7-10.95Q72.5-12.65 69.25-16.8L69.25-16.8 68.45-17.8 65-22.1 64.8-20.1Q64.59-18.6 64.7-16.5L64.7-16.5Q64.84-15.1 64.9-9.25 64.95-3.4 64.95-0.7L64.95-0.7Q64.95 0.1 64.34 0.33 63.75 0.55 62.95 0.55L62.95 0.55Q62.6 0.55 62.5 0.25 62.4-0.05 62.37-0.4 62.35-0.75 62.35-0.85L62.35-0.85Q62.25-1.65 62.25-3.2L62.25-3.2Q62.25-4.2 62.3-4.7L62.3-4.7Q62.35-7.4 62.45-14.13 62.55-20.85 62.55-26.2L62.55-26.2Q62.55-31.95 62.4-32.9L62.4-32.9Q62.35-33.3 62.35-33.95L62.35-33.95Q62.35-34.7 62.57-34.9 62.8-35.1 63.25-35.1L63.25-35.1Q64.25-35.1 65.2-35.05L65.2-35.05 70.65-34.95Q73.65-34.95 76.9-33.9 80.15-32.85 80.15-30L80.15-30Q80.15-27.3 78.15-25.8 76.15-24.3 73.67-23.75 71.2-23.2 69.34-23.2L69.34-23.2Q68.7-23.2 68.65-23.25L68.65-23.25Q68.95-22.95 72.59-17.95L72.59-17.95Q83.59-3.2 84.75-2.05L84.75-2.05ZM64.84-25.25Q66.5-25.25 67.34-25.3L67.34-25.3Q70.25-25.4 71.84-25.7L71.84-25.7Q74.15-26.1 75.32-26.8 76.5-27.5 76.5-29L76.5-29Q76.5-30 75.45-30.73 74.4-31.45 72.92-31.83 71.45-32.2 70.34-32.2L70.34-32.2Q69.09-32.25 66.84-32.25L66.84-32.25 65.15-32.25 64.84-25.25ZM111.14-33.25L111.14-32.7Q111.14-31.55 110.94-31.55L110.94-31.55Q110.64-31.55 110.27-31.63 109.89-31.7 109.34-31.7L109.34-31.7 101.34-31.7 95.14-31.75Q94.84-31.75 92.89-31.6L92.89-31.6 91.74-31.5 91.64-30.15Q91.59-29.4 91.59-27.8L91.59-27.8Q91.59-27 91.69-25.7L91.69-25.7Q91.79-24.5 91.79-23.95L91.79-23.95 91.79-21.95Q91.79-21.15 91.84-20.7L91.84-20.7Q92.29-20.65 93.19-20.65L93.19-20.65 95.19-20.65Q95.49-20.65 96.39-20.75L96.39-20.75Q97.69-20.85 98.64-20.85L98.64-20.85Q99.04-20.85 101.44-20.7L101.44-20.7 102.54-20.65Q102.94-20.65 103.69-20.73 104.44-20.8 105.14-20.8L105.14-20.8 106.79-20.75Q108.09-20.65 108.59-20.65L108.59-20.65Q109.14-20.65 109.34-20.7L109.34-20.7 109.64-20.75Q109.99-20.75 110.14-20.53 110.29-20.3 110.24-20.1L110.24-20.1Q110.19-19.75 110.19-19.23 110.19-18.7 110.14-18.3L110.14-18.3Q110.09-17.9 109.99-17.82 109.89-17.75 109.39-17.75L109.39-17.75 107.39-17.95Q103.64-18.3 102.49-18.3L102.49-18.3Q98.24-18.3 96.24-18.15L96.24-18.15Q95.44-18.05 94.49-18.05 93.54-18.05 93.29-18.05L93.29-18.05Q92.34-18.05 91.89-18.1L91.89-18.1 91.74-17.3Q91.64-16.4 91.64-15.7L91.64-15.7Q91.64-15.1 91.74-14.3L91.74-14.3Q91.84-13.5 91.84-12.9L91.84-12.9 91.89-6.95 91.84-4.45Q91.79-4 91.79-3.2L91.79-3.2Q92.44-3.15 93.69-3.15L93.69-3.15Q94.74-3.1 96.94-3.1L96.94-3.1 99.64-3.05Q100.49-3 102.24-3L102.24-3Q103.29-3 104.99-3.1L104.99-3.1 107.09-3.15Q108.29-3.15 109.09-3.1 109.89-3.05 110.29-3.05L110.29-3.05Q110.69-3.05 110.77-2.9 110.84-2.75 110.84-2.25L110.84-2.25Q110.84-1.9 110.79-1.53 110.74-1.15 110.74-0.7L110.74-0.7Q110.74-0.35 110.49-0.23 110.24-0.1 109.69-0.1L109.69-0.1Q109.14-0.1 108.79-0.15L108.79-0.15Q107.44-0.3 103.34-0.3L103.34-0.3Q100.84-0.3 99.74-0.25L99.74-0.25Q98.89-0.2 96.94-0.2L96.94-0.2 92.29-0.25Q91.49-0.3 90.39-0.3L90.39-0.3Q89.69-0.3 89.47-0.48 89.24-0.65 89.24-1.05L89.24-1.05 89.29-1.85Q89.34-2.05 89.34-2.3L89.34-2.3Q89.34-2.45 89.29-3.03 89.24-3.6 89.24-5.15L89.24-5.15Q89.24-6.65 89.14-10.05L89.14-10.05Q88.99-12.85 88.99-15.45L88.99-15.45Q88.99-16.55 89.24-21.8L89.24-21.8Q89.29-22.85 89.34-23.9 89.39-24.95 89.39-25.8L89.39-25.8Q89.39-31.6 89.24-33.45L89.24-33.45Q89.09-34.65 90.69-34.65L90.69-34.65Q91.09-34.65 91.99-34.55L91.99-34.55Q92.79-34.45 93.19-34.45L93.19-34.45 96.34-34.55Q99.74-34.75 101.59-34.75L101.59-34.75Q103.74-34.75 107.64-34.65L107.64-34.65Q108.89-34.6 110.29-34.6L110.29-34.6Q110.89-34.6 111.04-34.3 111.19-34 111.17-33.68 111.14-33.35 111.14-33.25L111.14-33.25ZM136.69-33.25L136.69-32.7Q136.69-31.55 136.49-31.55L136.49-31.55Q136.19-31.55 135.81-31.63 135.44-31.7 134.89-31.7L134.89-31.7 126.89-31.7 120.69-31.75Q120.39-31.75 118.44-31.6L118.44-31.6 117.29-31.5 117.19-30.15Q117.14-29.4 117.14-27.8L117.14-27.8Q117.14-27 117.24-25.7L117.24-25.7Q117.34-24.5 117.34-23.95L117.34-23.95 117.34-21.95Q117.34-21.15 117.39-20.7L117.39-20.7Q117.84-20.65 118.74-20.65L118.74-20.65 120.74-20.65Q121.04-20.65 121.94-20.75L121.94-20.75Q123.24-20.85 124.19-20.85L124.19-20.85Q124.59-20.85 126.99-20.7L126.99-20.7 128.09-20.65Q128.49-20.65 129.24-20.73 129.99-20.8 130.69-20.8L130.69-20.8 132.34-20.75Q133.64-20.65 134.14-20.65L134.14-20.65Q134.69-20.65 134.89-20.7L134.89-20.7 135.19-20.75Q135.54-20.75 135.69-20.53 135.84-20.3 135.79-20.1L135.79-20.1Q135.74-19.75 135.74-19.23 135.74-18.7 135.69-18.3L135.69-18.3Q135.64-17.9 135.54-17.82 135.44-17.75 134.94-17.75L134.94-17.75 132.94-17.95Q129.19-18.3 128.04-18.3L128.04-18.3Q123.79-18.3 121.79-18.15L121.79-18.15Q120.99-18.05 120.04-18.05 119.09-18.05 118.84-18.05L118.84-18.05Q117.89-18.05 117.44-18.1L117.44-18.1 117.29-17.3Q117.19-16.4 117.19-15.7L117.19-15.7Q117.19-15.1 117.29-14.3L117.29-14.3Q117.39-13.5 117.39-12.9L117.39-12.9 117.44-6.95 117.39-4.45Q117.34-4 117.34-3.2L117.34-3.2Q117.99-3.15 119.24-3.15L119.24-3.15Q120.29-3.1 122.49-3.1L122.49-3.1 125.19-3.05Q126.04-3 127.79-3L127.79-3Q128.84-3 130.54-3.1L130.54-3.1 132.64-3.15Q133.84-3.15 134.64-3.1 135.44-3.05 135.84-3.05L135.84-3.05Q136.24-3.05 136.31-2.9 136.39-2.75 136.39-2.25L136.39-2.25Q136.39-1.9 136.34-1.53 136.29-1.15 136.29-0.7L136.29-0.7Q136.29-0.35 136.04-0.23 135.79-0.1 135.24-0.1L135.24-0.1Q134.69-0.1 134.34-0.15L134.34-0.15Q132.99-0.3 128.89-0.3L128.89-0.3Q126.39-0.3 125.29-0.25L125.29-0.25Q124.44-0.2 122.49-0.2L122.49-0.2 117.84-0.25Q117.04-0.3 115.94-0.3L115.94-0.3Q115.24-0.3 115.02-0.48 114.79-0.65 114.79-1.05L114.79-1.05 114.84-1.85Q114.89-2.05 114.89-2.3L114.89-2.3Q114.89-2.45 114.84-3.03 114.79-3.6 114.79-5.15L114.79-5.15Q114.79-6.65 114.69-10.05L114.69-10.05Q114.54-12.85 114.54-15.45L114.54-15.45Q114.54-16.55 114.79-21.8L114.79-21.8Q114.84-22.85 114.89-23.9 114.94-24.95 114.94-25.8L114.94-25.8Q114.94-31.6 114.79-33.45L114.79-33.45Q114.64-34.65 116.24-34.65L116.24-34.65Q116.64-34.65 117.54-34.55L117.54-34.55Q118.34-34.45 118.74-34.45L118.74-34.45 121.89-34.55Q125.29-34.75 127.14-34.75L127.14-34.75Q129.29-34.75 133.19-34.65L133.19-34.65Q134.44-34.6 135.84-34.6L135.84-34.6Q136.44-34.6 136.59-34.3 136.74-34 136.72-33.68 136.69-33.35 136.69-33.25L136.69-33.25ZM150.09-35Q153.14-35 156.59-33.38 160.04-31.75 162.64-27.45 165.24-23.15 165.24-15.75L165.24-15.75Q165.24-9 162.01-5.53 158.79-2.05 155.24-1.07 151.69-0.1 149.34-0.1L149.34-0.1 145.24-0.05Q144.14 0 142.54 0L142.54 0Q141.59 0 141.59-1.7L141.59-1.7 141.64-3 141.54-5.5 141.49-7.75 141.44-9.25Q141.24-11.85 141.24-15.15L141.24-15.15Q141.24-17.1 141.44-20.3L141.44-20.3Q141.64-23.5 141.64-25.55L141.64-25.55 141.59-32.25Q141.54-33.05 141.54-34.05L141.54-34.05Q141.54-34.6 142.26-34.73 142.99-34.85 143.79-34.83 144.59-34.8 144.89-34.8L144.89-34.8 146.69-34.9Q148.79-35 150.09-35L150.09-35ZM150.19-10.7Q151.54-11.35 152.69-12.5L152.69-12.5Q155.19-14.9 155.19-18.2L155.19-18.2Q155.19-21.35 152.79-23.25L152.79-23.25Q151.74-24.05 150.44-24.45L150.44-24.45Q150.54-23.35 150.54-22.75L150.54-22.75Q150.54-21.8 150.44-20L150.44-20Q150.34-18.3 150.34-17.5L150.34-17.5Q150.34-16.2 150.24-13.3L150.24-13.3Q150.19-12.45 150.19-10.7L150.19-10.7ZM193.14-33.9Q193.14-33.65 193.06-32.6 192.99-31.55 192.99-30L192.99-30Q192.99-28.6 193.14-26.2L193.14-26.2Q193.14-24.85 191.39-24.85L191.39-24.85 182.59-24.85 182.49-19.7Q182.44-18.85 182.44-15.45L182.44-15.45Q182.44-11.95 182.49-8.65 182.54-5.35 182.54-2.95L182.54-2.95 182.59-0.9 182.59-0.65Q182.59-0.2 182.46-0.1 182.34 0 182.14 0 181.94 0 181.84 0L181.84 0 178.44 0Q177.84 0 177.74-0.2 177.64-0.4 177.64-0.93 177.64-1.45 177.64-1.7L177.64-1.7 177.84-7.9Q178.14-16 178.14-18.3L178.14-18.3Q178.14-19.6 178.04-22.2L178.04-22.2 177.99-24.85Q174.39-24.85 170.69-24.75L170.69-24.75 169.14-24.7Q168.49-24.7 168.24-25.05 167.99-25.4 168.14-25.85L168.14-25.85 168.19-27.1Q168.29-30 168.29-32.45L168.29-32.45Q168.29-33.65 168.24-33.9L168.24-33.9 168.24-34.25Q168.24-34.8 168.46-34.9 168.69-35 169.14-35L169.14-35 174.09-35 176.89-35.05Q179.49-35.15 180.54-35.15L180.54-35.15 183.54-35.1Q187.14-35 189.19-35L189.19-35Q190.69-35 191.14-35.05L191.14-35.05Q192.24-35.1 192.69-34.73 193.14-34.35 193.14-33.9L193.14-33.9ZM207.48-35.85Q212.23-35.85 215.31-33.98 218.38-32.1 220.08-30.4L220.08-30.4Q220.28-30.2 220.28-29.95L220.28-29.95Q220.28-29.8 220.16-29.58 220.03-29.35 219.98-29.25L219.98-29.25Q219.73-28.9 219.16-28.03 218.58-27.15 218.23-26.75L218.23-26.75Q218.08-26.55 217.91-26.33 217.73-26.1 217.61-26 217.48-25.9 217.23-25.9L217.23-25.9Q217.13-25.9 216.76-26.23 216.38-26.55 216.03-26.8L216.03-26.8Q214.03-28.55 212.13-29.8 210.23-31.05 208.48-31.05L208.48-31.05Q207.08-31.05 206.18-30.43 205.28-29.8 205.28-27.6L205.28-27.6Q205.28-25.45 206.88-24.25 208.48-23.05 211.13-21.95L211.13-21.95Q211.38-21.85 214.06-20.7 216.73-19.55 218.81-16.3 220.88-13.05 220.88-8.55L220.88-8.55Q220.88-3.75 217.28-1.35 213.68 1.05 207.33 1.05L207.33 1.05Q200.13 1.05 198.18-1.73 196.23-4.5 196.13-4.6L196.13-4.6Q195.93-4.85 195.93-5.1L195.93-5.1Q195.93-5.25 196.33-5.75L196.33-5.75Q196.98-6.65 198.23-7.9L198.23-7.9Q198.43-8.1 198.63-8.1L198.63-8.1Q198.88-8.1 199.18-7.73 199.48-7.35 199.68-7.15L199.68-7.15Q202.63-4.2 206.38-4.2L206.38-4.2Q208.28-4.2 209.68-4.93 211.08-5.65 211.08-7.65L211.08-7.65Q211.08-11.1 205.63-15L205.63-15Q204.73-15.6 203.93-16L203.93-16Q201.83-17.15 200.33-18.25 198.83-19.35 197.68-21.15 196.53-22.95 196.53-25.35L196.53-25.35Q196.53-28.35 198.41-30.75 200.28-33.15 202.91-34.5 205.53-35.85 207.48-35.85L207.48-35.85ZM235.48-21.5L237.63-21.45Q238.68-21.45 239.58-21.55L239.58-21.55Q239.88-21.6 240.53-21.6L240.53-21.6Q241.23-21.6 241.58-21.55L241.58-21.55 242.73-21.45 242.88-22.95 243.03-25.35 243.13-30.25 243.23-34.1Q243.28-34.85 243.43-35.1 243.58-35.35 244.13-35.4L244.13-35.4Q244.63-35.4 246.93-35.7L246.93-35.7Q247.33-35.75 248.38-35.75L248.38-35.75Q249.98-35.75 251.03-35.6L251.03-35.6Q251.58-35.5 251.71-35.38 251.83-35.25 251.86-34.95 251.88-34.65 251.93-34.4L251.93-34.4Q251.93-33.6 251.78-31.7L251.78-31.7Q251.58-28.2 251.58-26.9L251.58-26.9Q251.58-26.25 251.28-22.75L251.28-22.75Q250.98-18.95 250.98-17.8L250.98-17.8 251.08-7.9Q251.08-2.3 251.28-1.05L251.28-1.05 251.28-0.95Q251.28-0.4 251.08-0.28 250.88-0.15 250.63-0.18 250.38-0.2 250.28-0.2L250.28-0.2Q249.88-0.3 249.28-0.3L249.28-0.3Q249.08-0.3 247.98-0.2L247.98-0.2Q246.58-0.05 243.48-0.05L243.48-0.05 243.38-0.05Q242.68-0.05 242.68-0.5L242.68-0.5Q242.68-1.45 242.66-4.25 242.63-7.05 242.48-8.35L242.48-8.35Q242.38-10.25 242.38-12.05L242.38-12.05Q242.33-12.8 242.33-14.35L242.33-14.35 240.88-14.35 238.73-14.3 237.83-14.25 236.83-14.3Q236.08-14.3 235.63-14.35L235.63-14.35 235.48-11.2Q235.33-9.45 235.33-6.65L235.33-6.65 235.33-4.1Q235.33-1.4 235.43-0.85L235.43-0.85Q235.53-0.25 235.26-0.13 234.98 0 234.61 0 234.23 0 234.08 0L234.08 0Q233.68-0.05 232.73-0.13 231.78-0.2 231.18-0.2L231.18-0.2 229.73-0.1Q229.38-0.05 227.13 0.1L227.13 0.1Q225.98 0.25 225.98-1.3L225.98-1.3 226.03-3.25 226.13-6.85Q226.13-7.95 226.18-8.9L226.18-8.9 226.23-14.7Q226.23-16.7 226.18-17.25L226.18-17.25Q226.03-18.4 226.03-20.25L226.03-20.25 226.08-23.3Q226.13-24.05 226.13-25.25L226.13-25.25Q226.13-26.65 226.43-31.05L226.43-31.05 226.58-34.5Q226.58-34.9 226.73-35.05 226.88-35.2 227.18-35.2L227.18-35.2 227.83-35.15Q228.48-35.05 229.53-35 230.58-34.95 231.58-34.95L231.58-34.95 233.88-35Q234.43-35.05 235.13-35.05L235.13-35.05 235.18-35.05Q235.58-35.05 235.58-34.5L235.58-34.5Q235.63-34.4 235.66-32.52 235.68-30.65 235.68-28.1L235.68-28.1Q235.68-26.5 235.58-23.8L235.58-23.8 235.48-21.5ZM259.43-35.25Q260.08-35.2 260.7-35.23 261.33-35.25 261.78-35.25L261.78-35.25Q262.88-35.25 263.38-35.2L263.38-35.2Q263.98-35.15 264.23-34.95 264.48-34.75 264.48-34.4L264.48-34.4Q264.48-34.15 264.43-33.85 264.38-33.55 264.33-33.3L264.33-33.3Q263.78-29.05 263.73-24.55L263.73-24.55Q263.68-23.25 263.68-20.55L263.68-20.55 263.73-14.5Q263.78-13.75 263.78-12.95L263.78-12.95 263.83-10.95Q263.93-8.35 263.93-7.1L263.93-7.1Q263.93-6.15 263.88-5.95L263.88-5.95Q263.83-5.75 263.83-4.8L263.83-4.8 263.88-2.05Q263.93-1.45 263.93-0.55L263.93-0.55Q263.98 0.1 263.55 0.28 263.13 0.45 262.43 0.4L262.43 0.4 257.88 0.4Q257.13 0.45 256.93 0.08 256.73-0.3 256.68-1.15L256.68-1.15Q256.58-1.5 256.78-3L256.78-3Q256.98-4.4 256.98-5.4L256.98-5.4Q256.98-5.75 257.33-12.15L257.33-12.15Q257.63-16.85 257.63-17.3L257.63-17.3 257.73-22.2 257.83-26.75 257.93-29.45 258.03-31.25 258.03-33.35Q258.03-35.3 259.03-35.3L259.03-35.3Q259.28-35.3 259.43-35.25L259.43-35.25ZM292.68-2.05Q294.03-0.7 294.03-0.2L294.03-0.2Q294.03-0.1 293.78 0.15L293.78 0.15Q293.32 0.45 291.53 0.45L291.53 0.45Q290.23 0.45 289.88 0.28 289.53 0.1 289.35-0.3 289.18-0.7 289.07-0.9L289.07-0.9Q288.93-1.2 287.85-2.63 286.78-4.05 286.23-4.8L286.23-4.8Q283.57-8.2 281.63-10.95L281.63-10.95Q280.43-12.65 277.18-16.8L277.18-16.8 276.38-17.8 272.93-22.1 272.73-20.1Q272.53-18.6 272.63-16.5L272.63-16.5Q272.78-15.1 272.82-9.25 272.88-3.4 272.88-0.7L272.88-0.7Q272.88 0.1 272.28 0.33 271.68 0.55 270.88 0.55L270.88 0.55Q270.53 0.55 270.43 0.25 270.32-0.05 270.3-0.4 270.28-0.75 270.28-0.85L270.28-0.85Q270.18-1.65 270.18-3.2L270.18-3.2Q270.18-4.2 270.23-4.7L270.23-4.7Q270.28-7.4 270.38-14.13 270.48-20.85 270.48-26.2L270.48-26.2Q270.48-31.95 270.32-32.9L270.32-32.9Q270.28-33.3 270.28-33.95L270.28-33.95Q270.28-34.7 270.5-34.9 270.73-35.1 271.18-35.1L271.18-35.1Q272.18-35.1 273.13-35.05L273.13-35.05 278.57-34.95Q281.57-34.95 284.82-33.9 288.07-32.85 288.07-30L288.07-30Q288.07-27.3 286.07-25.8 284.07-24.3 281.6-23.75 279.13-23.2 277.28-23.2L277.28-23.2Q276.63-23.2 276.57-23.25L276.57-23.25Q276.88-22.95 280.53-17.95L280.53-17.95Q291.53-3.2 292.68-2.05L292.68-2.05ZM272.78-25.25Q274.43-25.25 275.28-25.3L275.28-25.3Q278.18-25.4 279.78-25.7L279.78-25.7Q282.07-26.1 283.25-26.8 284.43-27.5 284.43-29L284.43-29Q284.43-30 283.38-30.73 282.32-31.45 280.85-31.83 279.38-32.2 278.28-32.2L278.28-32.2Q277.03-32.25 274.78-32.25L274.78-32.25 273.07-32.25 272.78-25.25ZM321.67-35.95Q322.27-35.9 322.4-35.65 322.52-35.4 322.5-34.98 322.47-34.55 322.47-34.35L322.47-34.35Q322.52-33.7 322.22-33.45 321.92-33.2 321.27-33.2L321.27-33.2Q320.87-33.2 319.75-33.15 318.62-33.1 317.02-33.15L317.02-33.15 316.82-33.15 316.72-24.1 316.67-15.3Q316.67-13.3 316.9-10.23 317.12-7.15 317.17-6.35L317.17-6.35Q317.47-2.35 317.47-1.85L317.47-1.85Q317.52-0.85 317.02-0.55 316.52-0.25 315.27-0.25L315.27-0.25 313.07-0.3Q312.82-0.3 304.87-0.45L304.87-0.45 301.77-0.5Q301.27-0.5 301.27-1.5L301.27-1.5Q301.27-1.85 301.37-2.85L301.37-2.85Q301.47-4.15 301.47-4.85L301.47-4.85Q301.37-6.15 301.37-9.4L301.37-9.4Q301.37-13.75 301.5-18.7 301.62-23.65 301.82-26.15L301.82-26.15Q301.92-27.45 301.92-29.65L301.92-29.65Q301.92-32.1 301.77-33.35L301.77-33.35 300.87-33.4 296.72-33.3Q296.32-33.3 296.32-34.1L296.32-34.1 296.37-35.2Q296.37-35.6 296.5-35.73 296.62-35.85 296.92-35.85L296.92-35.85Q297.12-35.85 297.42-35.8 297.72-35.75 298.12-35.75L298.12-35.75 308.77-35.8 317.47-35.9Q319.52-35.95 321.67-35.95L321.67-35.95Z" opacity="1" transform="matrix(1,0,0,1,0,0)" fill="#EFBD48" class="wordmark-text-0" data-fill-palette-color="primary" id="text-0"></path></svg></g></svg></g></svg></g></svg></g></svg></g></svg></g></svg></g><g mask="url(#b35819df-76a7-488f-b3b7-83c8465ce2b6)"><g transform="matrix(2.6803965937537577, 0, 0, 2.6803965937537577, 63.7401703123121, 1)"><svg xmlns="http://www.w3.org/2000/svg" xmlns:xlink="http://www.w3.org/1999/xlink" version="1.1" x="0" y="0" viewBox="0 4.771 100 91.479" enable-background="new 0 0 100 100" xml:space="preserve" height="91.479" width="100" class="icon-none" data-fill-palette-color="accent" id="none"><g fill="#EFBD48" data-fill-palette-color="accent"><polygon fill="#EFBD48" points="40.353,4.771 37.621,10.525 44.786,16.319 49.231,11.588 49.09,11.438 49.093,11.437  " data-fill-palette-color="accent"></polygon><polygon fill="#EFBD48" points="55.049,16.319 62.214,10.525 59.48,4.771 50.578,11.562  " data-fill-palette-color="accent"></polygon><polygon fill="#EFBD48" points="63.454,10.808 54.955,17.681 50.674,13.124 50.674,96.25 77.986,96.25 77.609,36.051    95.255,41.273 100,19.591 62.573,8.953  " data-fill-palette-color="accent"></polygon><path fill="#EFBD48" d="M44.878 17.681l-8.499-6.873 0.916-1.929L0 19.205l5.123 22.261 17.267-5.667V96.25h26.841V13.048L44.878 17.681zM44.926 86.667c-0.828 0-1.5-0.671-1.5-1.5s0.672-1.5 1.5-1.5 1.5 0.671 1.5 1.5S45.754 86.667 44.926 86.667zM44.926 74.967c-0.828 0-1.5-0.672-1.5-1.5s0.672-1.5 1.5-1.5 1.5 0.672 1.5 1.5S45.754 74.967 44.926 74.967zM44.926 63.267c-0.828 0-1.5-0.672-1.5-1.5s0.672-1.5 1.5-1.5 1.5 0.672 1.5 1.5S45.754 63.267 44.926 63.267zM44.926 51.566c-0.828 0-1.5-0.671-1.5-1.5 0-0.829 0.672-1.5 1.5-1.5s1.5 0.671 1.5 1.5C46.426 50.895 45.754 51.566 44.926 51.566zM44.926 39.867c-0.828 0-1.5-0.671-1.5-1.5s0.672-1.5 1.5-1.5 1.5 0.671 1.5 1.5S45.754 39.867 44.926 39.867zM44.926 28.167c-0.829 0-1.5-0.671-1.5-1.5s0.671-1.5 1.5-1.5 1.5 0.671 1.5 1.5S45.754 28.167 44.926 28.167z" data-fill-palette-color="accent"></path></g></svg></g></g></svg></g><defs></defs></svg><rect width="395.52" height="247.2" fill="none" stroke="none" visibility="hidden"></rect></g></svg></g></svg>