<svg xmlns="http://www.w3.org/2000/svg"  viewBox="0 0 48 48" width="480px" height="480px" baseProfile="basic"><path fill="#ef4754" stroke="#1d1d1b" stroke-linejoin="round" stroke-miterlimit="10" d="M22.699,9.143	c0.095-0.248,0.18-0.558,0.001-0.754c-0.172-0.188-0.473-0.145-0.72-0.087c-0.911,0.213-2.36,0.566-3.035,1.215	c-0.461,0.443-0.742,1.036-1.014,1.615c-1.169,2.492-1.846,4.869-3.014,7.361c-0.234,0.5-0.477,1.011-0.875,1.394	c-0.666,0.641-1.642,0.812-2.556,0.953c-0.925,0.143-1.849,0.286-2.774,0.429c1.605-3.535,3.214-7.081,4.386-10.783	c0.222-0.7,0.326-1.66-0.332-1.985c-0.677-0.334-1.488,0.324-1.788,1.017c-1.748,4.031-3.115,7.186-4.809,11.267	c-0.157,0.377-0.207,0.823-0.521,1.084c-0.213,0.177-4.365,1.263-4.728,1.668c-0.362,0.405-0.398,1.146,0.069,1.424	c0.234,0.14,1.578,0.933,1.967,1.31s1.138,0.548,1.4,0.074c-1.227,4.561-3.121,8.137-3.039,11.329	c1.124-0.01,1.824-0.883,2.232-1.93c1.18-3.032,2.315-6.42,3.495-9.452c1.692-0.351,3.417-0.537,5.145-0.555	c-1.468,2.93-2.597,6.029-3.358,9.216c-0.182,0.762-0.323,1.636,0.136,2.271c0.192,0.266,2.129,1.584,2.824,2.056	c1.758-4.835,3.515-9.671,5.273-14.506c0.085-0.235,0.173-0.474,0.325-0.672c0.268-0.35,0.697-0.528,1.081-0.745	c1.214-0.686,3.307-3.552,3.224-3.875c-0.276-1.07-1.569-0.053-2.118-0.308c-1.01-0.469-0.017-1.827,0.282-2.608	C20.804,14.091,21.751,11.617,22.699,9.143z"/><path fill="#ef4754" stroke="#1d1d1b" stroke-linejoin="round" stroke-miterlimit="10" d="M24.617,36.167	c-0.243,0.632-1.044,1.163-1.69,1.364c-0.498-0.175-0.473-0.881-0.348-1.393c2.128-8.733,5.341-17.159,8.546-25.557	c0.121-0.318,0.249-0.646,0.485-0.89c0.277-0.286,3.781-1.48,3.958-1.436c0.477,0.12,0.477,0.792,0.372,1.272	c-1.396,6.39-2.155,12.919-2.262,19.458c2.298-5.98,4.823-11.873,7.568-17.662c0.246-0.52,0.498-1.044,0.862-1.49	c0.943-1.155,2.476-1.61,3.913-2.005c0.311-0.086,0.682-0.159,0.926,0.051c0.285,0.245,0.205,0.698,0.102,1.06	c-2.14,7.494-5.257,26.314-5.571,28.026c-0.146,0.8-0.552,1.795-1.365,1.757c-0.652-0.03-2.344-1.72-2.509-2.169	c-0.085-0.231-0.072-0.485-0.054-0.73c0.493-6.881,3.362-13.407,4.039-20.272c-3.7,7.022-5.739,13.675-9.158,20.508	c-0.759-0.239-1.758-1.078-2.355-1.605c-0.252-0.223-0.534-1.704-0.476-2.385c0.708-8.238,0.793-11.625,0.797-15.168	c-0.538,2.152-2.311,7.944-2.856,9.582C26.479,29.679,25.824,33.024,24.617,36.167z"/><path fill="none" stroke="#1d1d1b" stroke-linecap="round" stroke-linejoin="round" stroke-miterlimit="10" d="M20.846,33.62	c-0.597-1.675-1.193-3.35-1.721-5.048c-0.129-0.416-0.256-0.841-0.255-1.277c0.001-0.436,0.147-0.891,0.48-1.171	c0.333-0.28,0.874-0.329,1.197-0.036c0.271,0.246,0.329,0.663,0.232,1.015c-0.097,0.352-0.323,0.653-0.555,0.935	c-0.81,0.98-1.765,1.853-2.406,2.952c-0.182,0.312-0.339,0.648-0.369,1.007c-0.031,0.359,0.084,0.747,0.365,0.972	c0.478,0.383,1.193,0.163,1.712-0.163c0.85-0.535,1.541-1.32,1.964-2.231"/></svg>